<svg width="27" height="28" viewBox="0 0 27 28" fill="none" xmlns="http://www.w3.org/2000/svg">
<path d="M10.125 11.6667C11.3676 11.6667 12.375 10.622 12.375 9.33333C12.375 8.04467 11.3676 7 10.125 7C8.88236 7 7.875 8.04467 7.875 9.33333C7.875 10.622 8.88236 11.6667 10.125 11.6667Z" stroke="white" stroke-width="1.5" stroke-linecap="round" stroke-linejoin="round"/>
<path d="M14.625 2.33334H10.125C4.5 2.33334 2.25 4.66668 2.25 10.5V17.5C2.25 23.3333 4.5 25.6667 10.125 25.6667H16.875C22.5 25.6667 24.75 23.3333 24.75 17.5V11.6667" stroke="white" stroke-width="1.5" stroke-linecap="round" stroke-linejoin="round"/>
<path d="M20.25 2.33334V9.33334L22.5 7.00001" stroke="white" stroke-width="1.5" stroke-linecap="round" stroke-linejoin="round"/>
<path d="M20.25 9.33333L18 7" stroke="white" stroke-width="1.5" stroke-linecap="round" stroke-linejoin="round"/>
<path d="M3.00378 22.1083L8.55003 18.2467C9.43878 17.6283 10.7213 17.6983 11.52 18.41L11.8913 18.7483C12.7688 19.53 14.1863 19.53 15.0638 18.7483L19.7438 14.5833C20.6213 13.8017 22.0388 13.8017 22.9163 14.5833L24.75 16.2167" stroke="white" stroke-width="1.5" stroke-linecap="round" stroke-linejoin="round"/>
</svg>
