<svg width="110" height="45" viewBox="0 0 110 45" fill="none" xmlns="http://www.w3.org/2000/svg">
<path d="M35.1992 41.7598C34.8359 41.873 34.4512 41.9648 34.0449 42.0352C33.6426 42.1055 33.1992 42.1406 32.7148 42.1406C31.5195 42.1406 30.6172 41.7832 30.0078 41.0684C29.3984 40.3535 29.0938 39.3008 29.0938 37.9102C29.0938 36.4336 29.3984 35.3203 30.0078 34.5703C30.6172 33.8203 31.5195 33.4453 32.7148 33.4453C33.168 33.4453 33.5742 33.4844 33.9336 33.5625C34.2969 33.6406 34.6465 33.7422 34.9824 33.8672L34.6777 34.7344C34.5176 34.6758 34.3594 34.623 34.2031 34.5762C34.0469 34.5293 33.8887 34.4902 33.7285 34.459C33.5723 34.4277 33.4102 34.4043 33.2422 34.3887C33.0742 34.373 32.8984 34.3652 32.7148 34.3652C32.2812 34.3652 31.9082 34.4434 31.5957 34.5996C31.2832 34.752 31.0254 34.9766 30.8223 35.2734C30.6191 35.5664 30.4688 35.9258 30.3711 36.3516C30.2734 36.7734 30.2246 37.2539 30.2246 37.793C30.2246 38.3477 30.2734 38.8379 30.3711 39.2637C30.4688 39.6895 30.6191 40.0488 30.8223 40.3418C31.0254 40.6309 31.2832 40.8496 31.5957 40.998C31.9082 41.1465 32.2812 41.2207 32.7148 41.2207C33.1133 41.2207 33.4922 41.1875 33.8516 41.1211C34.2109 41.0547 34.5684 40.9668 34.9238 40.8574L35.1992 41.7598ZM38.9375 35.7715C39.1289 35.7715 39.3281 35.7871 39.5352 35.8184C39.7422 35.8457 39.9453 35.9004 40.1445 35.9824C40.3438 36.0684 40.5312 36.1855 40.707 36.334C40.8867 36.4785 41.0449 36.668 41.1816 36.9023C41.3184 37.1406 41.4258 37.4277 41.5039 37.7637C41.582 38.0957 41.6211 38.4922 41.6211 38.9531C41.6211 39.4141 41.582 39.8125 41.5039 40.1484C41.4258 40.4805 41.3184 40.7637 41.1816 40.998C41.0449 41.2363 40.8867 41.4297 40.707 41.5781C40.5312 41.7266 40.3438 41.8418 40.1445 41.9238C39.9453 42.0098 39.7422 42.0664 39.5352 42.0938C39.3281 42.125 39.1289 42.1406 38.9375 42.1406C38.75 42.1406 38.5527 42.125 38.3457 42.0938C38.1426 42.0664 37.9414 42.0098 37.7422 41.9238C37.543 41.8418 37.3555 41.7266 37.1797 41.5781C37.0039 41.4297 36.8477 41.2363 36.7109 40.998C36.5742 40.7637 36.4668 40.4805 36.3887 40.1484C36.3105 39.8125 36.2715 39.4141 36.2715 38.9531C36.2715 38.4922 36.3105 38.0957 36.3887 37.7637C36.4668 37.4277 36.5742 37.1406 36.7109 36.9023C36.8477 36.668 37.0039 36.4785 37.1797 36.334C37.3555 36.1855 37.543 36.0684 37.7422 35.9824C37.9414 35.9004 38.1426 35.8457 38.3457 35.8184C38.5488 35.7871 38.7461 35.7715 38.9375 35.7715ZM38.9375 36.5977C38.7148 36.5977 38.5039 36.6328 38.3047 36.7031C38.1094 36.7734 37.9375 36.8965 37.7891 37.0723C37.6367 37.252 37.5156 37.4922 37.4258 37.793C37.3359 38.0938 37.291 38.4805 37.291 38.9531C37.291 39.4219 37.3359 39.8086 37.4258 40.1133C37.5156 40.4141 37.6367 40.6523 37.7891 40.8281C37.9375 41.0078 38.1094 41.1328 38.3047 41.2031C38.5039 41.2695 38.7148 41.3027 38.9375 41.3027C39.1641 41.3027 39.377 41.2695 39.5762 41.2031C39.7793 41.1328 39.957 41.0078 40.1094 40.8281C40.2617 40.6523 40.3809 40.4141 40.4668 40.1133C40.5566 39.8086 40.6016 39.4219 40.6016 38.9531C40.6016 38.4805 40.5566 38.0938 40.4668 37.793C40.3809 37.4922 40.2617 37.252 40.1094 37.0723C39.957 36.8965 39.7793 36.7734 39.5762 36.7031C39.377 36.6328 39.1641 36.5977 38.9375 36.5977ZM43.0039 36.0117L43.9766 35.7949C44.0508 36.0293 44.1035 36.2559 44.1348 36.4746C44.1504 36.5801 44.1699 36.7891 44.1934 37.1016H44.3164C44.5312 36.707 44.7969 36.3926 45.1133 36.1582C45.4609 35.9004 45.8281 35.7715 46.2148 35.7715C46.7969 35.7715 47.2402 35.9121 47.5449 36.1934C47.8066 36.4316 47.9883 36.7969 48.0898 37.2891C48.1562 37.625 48.1895 38.125 48.1895 38.7891V42H47.1816V38.5078C47.1816 37.9258 47.125 37.5098 47.0117 37.2598C46.8438 36.8887 46.5059 36.7031 45.998 36.7031C45.6387 36.7031 45.2871 36.875 44.9434 37.2188C44.7129 37.4492 44.4668 37.7871 44.2051 38.2324V42H43.1973V38.25C43.1973 37.7227 43.1836 37.2676 43.1562 36.8848C43.1406 36.6465 43.0898 36.3555 43.0039 36.0117ZM54.6348 35.9062L52.6074 42H51.2598L49.2324 35.9062H50.3223L51.9336 41.2266L53.5449 35.9062H54.6348ZM60.4707 41.6602C60.0371 41.832 59.6289 41.9551 59.2461 42.0293C58.8672 42.1035 58.5273 42.1406 58.2266 42.1406C57.7656 42.1406 57.3633 42.0684 57.0195 41.9238C56.6758 41.7754 56.3887 41.5684 56.1582 41.3027C55.9316 41.0371 55.7598 40.7207 55.6426 40.3535C55.5293 39.9824 55.4727 39.5742 55.4727 39.1289C55.4727 38.8555 55.4922 38.582 55.5312 38.3086C55.5703 38.0352 55.6328 37.7754 55.7188 37.5293C55.8047 37.2793 55.916 37.0469 56.0527 36.832C56.1934 36.6172 56.3633 36.4316 56.5625 36.2754C56.7617 36.1191 56.9941 35.9961 57.2598 35.9062C57.5254 35.8164 57.8281 35.7715 58.168 35.7715C59.0391 35.7715 59.6953 36.0449 60.1367 36.5918C60.5781 37.1348 60.7988 37.9141 60.7988 38.9297V39.252H56.5098C56.5098 39.5801 56.5449 39.8711 56.6152 40.125C56.6855 40.375 56.793 40.5879 56.9375 40.7637C57.0859 40.9355 57.2715 41.0664 57.4941 41.1562C57.7207 41.2461 57.9883 41.291 58.2969 41.291C58.4688 41.291 58.6387 41.2793 58.8066 41.2559C58.9785 41.2285 59.1445 41.1953 59.3047 41.1562C59.4648 41.1133 59.6172 41.0664 59.7617 41.0156C59.9102 40.9648 60.0488 40.916 60.1777 40.8691L60.4707 41.6602ZM59.7852 38.4434C59.7539 37.8105 59.6016 37.3496 59.3281 37.0605C59.0586 36.7676 58.6719 36.6211 58.168 36.6211C57.6641 36.6211 57.2793 36.7676 57.0137 37.0605C56.752 37.3496 56.5938 37.8105 56.5391 38.4434H59.7852ZM63.4648 37.3184C63.5859 37.0762 63.7148 36.8574 63.8516 36.6621C63.9922 36.4668 64.1465 36.3008 64.3145 36.1641C64.4668 36.0312 64.6348 35.9336 64.8184 35.8711C65.002 35.8047 65.2109 35.7715 65.4453 35.7715C65.5234 35.7715 65.6133 35.7754 65.7148 35.7832C65.8203 35.791 65.9199 35.8047 66.0137 35.8242C65.998 36.0195 65.9785 36.2031 65.9551 36.375C65.9355 36.5469 65.9082 36.7207 65.873 36.8965C65.6777 36.8613 65.498 36.8359 65.334 36.8203C65.1738 36.8047 65.0215 36.8086 64.877 36.832C64.7051 36.8633 64.5547 36.9219 64.4258 37.0078C64.3008 37.0898 64.1836 37.2012 64.0742 37.3418C63.9688 37.4785 63.8652 37.6445 63.7637 37.8398C63.6621 38.0312 63.5508 38.252 63.4297 38.502V42H62.4219V38.2441C62.4219 37.998 62.418 37.7812 62.4102 37.5938C62.4062 37.4062 62.3945 37.2285 62.375 37.0605C62.3594 36.8887 62.334 36.7207 62.2988 36.5566C62.2637 36.3887 62.2168 36.2031 62.1582 36C62.3223 35.957 62.4824 35.918 62.6387 35.8828C62.7988 35.8477 62.9609 35.8145 63.125 35.7832C63.1797 35.9395 63.2227 36.0781 63.2539 36.1992C63.2891 36.3203 63.3164 36.4395 63.3359 36.5566C63.3555 36.6699 63.3691 36.7871 63.377 36.9082C63.3887 37.0254 63.4004 37.1621 63.4121 37.3184H63.4648ZM69.0664 35.7715C69.3867 35.7715 69.707 35.8047 70.0273 35.8711C70.3516 35.9375 70.6523 36.0293 70.9297 36.1465C70.875 36.2715 70.8184 36.3945 70.7598 36.5156C70.7012 36.6367 70.6367 36.7559 70.5664 36.873C70.4688 36.834 70.3594 36.7949 70.2383 36.7559C70.1211 36.7168 69.9961 36.6836 69.8633 36.6562C69.7344 36.6289 69.5996 36.6074 69.459 36.5918C69.3223 36.5723 69.1875 36.5625 69.0547 36.5625C68.9102 36.5625 68.7695 36.5781 68.6328 36.6094C68.5 36.6367 68.3809 36.6836 68.2754 36.75C68.1738 36.8164 68.0918 36.9043 68.0293 37.0137C67.9668 37.1191 67.9355 37.252 67.9355 37.4121C67.9355 37.5762 67.9707 37.7148 68.041 37.8281C68.1113 37.9375 68.207 38.0293 68.3281 38.1035C68.4492 38.1777 68.5898 38.2402 68.75 38.291C68.9141 38.3418 69.0879 38.3887 69.2715 38.4316C69.5566 38.502 69.8223 38.582 70.0684 38.6719C70.3145 38.7578 70.5273 38.8711 70.707 39.0117C70.8867 39.1523 71.0273 39.3262 71.1289 39.5332C71.2305 39.7402 71.2812 39.9961 71.2812 40.3008C71.2812 40.6211 71.2168 40.8965 71.0879 41.127C70.9629 41.3574 70.791 41.5488 70.5723 41.7012C70.3574 41.8496 70.1055 41.959 69.8164 42.0293C69.5273 42.1035 69.2188 42.1406 68.8906 42.1406C68.7188 42.1406 68.541 42.1289 68.3574 42.1055C68.1777 42.0859 67.998 42.0547 67.8184 42.0117C67.6426 41.9727 67.4688 41.9238 67.2969 41.8652C67.125 41.8066 66.9629 41.7422 66.8105 41.6719C66.8652 41.5469 66.9219 41.4258 66.9805 41.3086C67.043 41.1875 67.1074 41.0684 67.1738 40.9512C67.3027 41.0059 67.4395 41.0586 67.584 41.1094C67.7285 41.1562 67.877 41.1973 68.0293 41.2324C68.1816 41.2676 68.332 41.2969 68.4805 41.3203C68.6289 41.3398 68.7715 41.3496 68.9082 41.3496C69.0801 41.3496 69.2461 41.3301 69.4062 41.291C69.5703 41.252 69.7148 41.1914 69.8398 41.1094C69.9688 41.0234 70.0703 40.9141 70.1445 40.7812C70.2227 40.6484 70.2617 40.4883 70.2617 40.3008C70.2617 40.125 70.2246 39.9805 70.1504 39.8672C70.0801 39.7539 69.9844 39.6602 69.8633 39.5859C69.7422 39.5078 69.5996 39.4453 69.4355 39.3984C69.2754 39.3477 69.1055 39.3008 68.9258 39.2578C68.6523 39.1914 68.3926 39.1152 68.1465 39.0293C67.9043 38.9434 67.6914 38.832 67.5078 38.6953C67.3281 38.5547 67.1836 38.3828 67.0742 38.1797C66.9688 37.9727 66.916 37.7168 66.916 37.4121C66.916 37.127 66.9746 36.8809 67.0918 36.6738C67.209 36.4668 67.3652 36.2969 67.5605 36.1641C67.7598 36.0312 67.9883 35.9336 68.2461 35.8711C68.5078 35.8047 68.7812 35.7715 69.0664 35.7715ZM73.2148 36.9844L72.957 36.1641C73.6133 35.9023 74.3008 35.7715 75.0195 35.7715C75.6484 35.7715 76.1289 35.877 76.4609 36.0879C76.8398 36.3301 77.0293 36.7422 77.0293 37.3242V39.7207C77.0293 40.041 77.0332 40.3691 77.041 40.7051C77.0449 40.9043 77.0645 41.1113 77.0996 41.3262C77.1309 41.5293 77.1719 41.7227 77.2227 41.9062L76.2617 42.1172C76.1719 41.8555 76.1152 41.5625 76.0918 41.2383L75.9746 41.2266C75.4902 41.8359 74.873 42.1406 74.123 42.1406C73.5762 42.1406 73.1367 41.9902 72.8047 41.6895C72.4727 41.3848 72.3066 40.957 72.3066 40.4062C72.3066 39.9961 72.3965 39.6602 72.5762 39.3984C72.7598 39.1367 73.0176 38.916 73.3496 38.7363C73.873 38.4512 74.6055 38.3086 75.5469 38.3086C75.6719 38.3086 75.8398 38.3125 76.0508 38.3203V37.4297C76.0508 37.1484 75.9648 36.9453 75.793 36.8203C75.6211 36.6953 75.3516 36.6328 74.9844 36.6328C74.4492 36.6328 73.8594 36.75 73.2148 36.9844ZM76.0508 40.2891V39.0586C75.9453 39.0508 75.791 39.0469 75.5879 39.0469C75.2441 39.0469 74.9277 39.0762 74.6387 39.1348C74.209 39.2207 73.875 39.3574 73.6367 39.5449C73.4023 39.7285 73.2852 39.9941 73.2852 40.3418C73.2852 40.9668 73.625 41.2793 74.3047 41.2793C74.6562 41.2793 74.9844 41.1855 75.2891 40.998C75.5391 40.8418 75.793 40.6055 76.0508 40.2891ZM80.7734 35.7715C81.0938 35.7715 81.4141 35.8047 81.7344 35.8711C82.0586 35.9375 82.3594 36.0293 82.6367 36.1465C82.582 36.2715 82.5254 36.3945 82.4668 36.5156C82.4082 36.6367 82.3438 36.7559 82.2734 36.873C82.1758 36.834 82.0664 36.7949 81.9453 36.7559C81.8281 36.7168 81.7031 36.6836 81.5703 36.6562C81.4414 36.6289 81.3066 36.6074 81.166 36.5918C81.0293 36.5723 80.8945 36.5625 80.7617 36.5625C80.6172 36.5625 80.4766 36.5781 80.3398 36.6094C80.207 36.6367 80.0879 36.6836 79.9824 36.75C79.8809 36.8164 79.7988 36.9043 79.7363 37.0137C79.6738 37.1191 79.6426 37.252 79.6426 37.4121C79.6426 37.5762 79.6777 37.7148 79.748 37.8281C79.8184 37.9375 79.9141 38.0293 80.0352 38.1035C80.1562 38.1777 80.2969 38.2402 80.457 38.291C80.6211 38.3418 80.7949 38.3887 80.9785 38.4316C81.2637 38.502 81.5293 38.582 81.7754 38.6719C82.0215 38.7578 82.2344 38.8711 82.4141 39.0117C82.5938 39.1523 82.7344 39.3262 82.8359 39.5332C82.9375 39.7402 82.9883 39.9961 82.9883 40.3008C82.9883 40.6211 82.9238 40.8965 82.7949 41.127C82.6699 41.3574 82.498 41.5488 82.2793 41.7012C82.0645 41.8496 81.8125 41.959 81.5234 42.0293C81.2344 42.1035 80.9258 42.1406 80.5977 42.1406C80.4258 42.1406 80.248 42.1289 80.0645 42.1055C79.8848 42.0859 79.7051 42.0547 79.5254 42.0117C79.3496 41.9727 79.1758 41.9238 79.0039 41.8652C78.832 41.8066 78.6699 41.7422 78.5176 41.6719C78.5723 41.5469 78.6289 41.4258 78.6875 41.3086C78.75 41.1875 78.8145 41.0684 78.8809 40.9512C79.0098 41.0059 79.1465 41.0586 79.291 41.1094C79.4355 41.1562 79.584 41.1973 79.7363 41.2324C79.8887 41.2676 80.0391 41.2969 80.1875 41.3203C80.3359 41.3398 80.4785 41.3496 80.6152 41.3496C80.7871 41.3496 80.9531 41.3301 81.1133 41.291C81.2773 41.252 81.4219 41.1914 81.5469 41.1094C81.6758 41.0234 81.7773 40.9141 81.8516 40.7812C81.9297 40.6484 81.9688 40.4883 81.9688 40.3008C81.9688 40.125 81.9316 39.9805 81.8574 39.8672C81.7871 39.7539 81.6914 39.6602 81.5703 39.5859C81.4492 39.5078 81.3066 39.4453 81.1426 39.3984C80.9824 39.3477 80.8125 39.3008 80.6328 39.2578C80.3594 39.1914 80.0996 39.1152 79.8535 39.0293C79.6113 38.9434 79.3984 38.832 79.2148 38.6953C79.0352 38.5547 78.8906 38.3828 78.7812 38.1797C78.6758 37.9727 78.623 37.7168 78.623 37.4121C78.623 37.127 78.6816 36.8809 78.7988 36.6738C78.916 36.4668 79.0723 36.2969 79.2676 36.1641C79.4668 36.0312 79.6953 35.9336 79.9531 35.8711C80.2148 35.8047 80.4883 35.7715 80.7734 35.7715Z" fill="black"/>
<path fill-rule="evenodd" clip-rule="evenodd" d="M66.4653 16.6287C67.4387 15.112 68 13.3643 68 11.5C68 5.7005 62.628 1 56 1C49.372 1 44 5.7005 44 11.5C44 17.2995 49.372 22 56 22C58.1307 22 60.128 21.5088 61.8613 20.6572L68 22L66.4653 16.6287Z" stroke="black" stroke-width="1.5" stroke-linecap="round" stroke-linejoin="round"/>
<path d="M55.7639 11.8768C55.8946 11.7625 56.1052 11.7625 56.2359 11.8768C56.3666 11.9912 56.3666 12.1755 56.2359 12.2898C56.1052 12.4042 55.8946 12.4042 55.7639 12.2898C55.6346 12.1755 55.6346 11.9912 55.7639 11.8768" stroke="black" stroke-width="1.5" stroke-linecap="round" stroke-linejoin="round"/>
<path d="M50.4307 11.8768C50.5613 11.7625 50.772 11.7625 50.9027 11.8768C51.0333 11.9912 51.0333 12.1755 50.9027 12.2898C50.772 12.4042 50.5613 12.4042 50.4307 12.2898C50.3013 12.1755 50.3013 11.9912 50.4307 11.8768" stroke="black" stroke-width="1.5" stroke-linecap="round" stroke-linejoin="round"/>
<path d="M61.0974 11.8768C61.2281 11.7625 61.4387 11.7625 61.5694 11.8768C61.7001 11.9912 61.7001 12.1755 61.5694 12.2898C61.4387 12.4042 61.2281 12.4042 61.0974 12.2898C60.9681 12.1755 60.9681 11.9912 61.0974 11.8768" stroke="black" stroke-width="1.5" stroke-linecap="round" stroke-linejoin="round"/>
</svg>
