<svg width="32" height="34" viewBox="0 0 32 34" fill="none" xmlns="http://www.w3.org/2000/svg">
<path d="M17.1312 5.66666H14.8686C13.619 5.66666 12.606 6.68148 12.606 7.93332C12.606 9.34312 11.0793 10.228 9.85889 9.52216C8.77669 8.89624 7.39288 9.26769 6.76807 10.3518L5.63676 12.3148C5.01195 13.3989 5.38274 14.7852 6.46494 15.4111C7.68695 16.1179 7.68695 17.8821 6.46494 18.5888C5.38274 19.2148 5.01195 20.601 5.63676 21.6852L6.76807 23.6482C7.39288 24.7323 8.77669 25.1037 9.85889 24.4778C11.0793 23.772 12.606 24.6569 12.606 26.0667C12.606 27.3185 13.619 28.3333 14.8686 28.3333H17.1312C18.3808 28.3333 19.3939 27.3185 19.3939 26.0667C19.3939 24.6569 20.9206 23.772 22.1409 24.4778C23.2231 25.1037 24.6069 24.7323 25.2317 23.6481L26.3631 21.6852C26.9879 20.601 26.6171 19.2148 25.5349 18.5888C24.3129 17.8821 24.3129 16.1179 25.5349 15.4112C26.6171 14.7852 26.9879 13.399 26.3631 12.3148L25.2317 10.3518C24.6069 9.26771 23.2231 8.89626 22.1409 9.52218C20.9206 10.228 19.3939 9.34312 19.3939 7.93332C19.3939 6.68148 18.3808 5.66666 17.1312 5.66666Z" stroke="black" stroke-width="1.5" stroke-linejoin="round"/>
<ellipse cx="16" cy="17" rx="4" ry="4.25" stroke="black" stroke-width="1.5"/>
</svg>
