<svg width="71" height="42" viewBox="0 0 71 42" fill="none" xmlns="http://www.w3.org/2000/svg">
<circle cx="35.0001" cy="13" r="10.8333" stroke="black" stroke-width="1.5" stroke-linejoin="round"/>
<path d="M40.4166 18.4167C38.8117 17.0361 36.965 16.25 34.9999 16.25C33.0348 16.25 31.1881 17.0361 29.5833 18.4167" stroke="black" stroke-width="1.5" stroke-linecap="round" stroke-linejoin="round"/>
<circle cx="3.25" cy="3.25" r="3.25" transform="matrix(1 0 0 -1 31.75 13)" stroke="black" stroke-width="1.5" stroke-linejoin="round"/>
<path d="M17.8516 38.7598C17.4883 38.873 17.1035 38.9648 16.6973 39.0352C16.2949 39.1055 15.8516 39.1406 15.3672 39.1406C14.1719 39.1406 13.2695 38.7832 12.6602 38.0684C12.0508 37.3535 11.7461 36.3008 11.7461 34.9102C11.7461 33.4336 12.0508 32.3203 12.6602 31.5703C13.2695 30.8203 14.1719 30.4453 15.3672 30.4453C15.8203 30.4453 16.2266 30.4844 16.5859 30.5625C16.9492 30.6406 17.2988 30.7422 17.6348 30.8672L17.3301 31.7344C17.1699 31.6758 17.0117 31.623 16.8555 31.5762C16.6992 31.5293 16.541 31.4902 16.3809 31.459C16.2246 31.4277 16.0625 31.4043 15.8945 31.3887C15.7266 31.373 15.5508 31.3652 15.3672 31.3652C14.9336 31.3652 14.5605 31.4434 14.248 31.5996C13.9355 31.752 13.6777 31.9766 13.4746 32.2734C13.2715 32.5664 13.1211 32.9258 13.0234 33.3516C12.9258 33.7734 12.877 34.2539 12.877 34.793C12.877 35.3477 12.9258 35.8379 13.0234 36.2637C13.1211 36.6895 13.2715 37.0488 13.4746 37.3418C13.6777 37.6309 13.9355 37.8496 14.248 37.998C14.5605 38.1465 14.9336 38.2207 15.3672 38.2207C15.7656 38.2207 16.1445 38.1875 16.5039 38.1211C16.8633 38.0547 17.2207 37.9668 17.5762 37.8574L17.8516 38.7598ZM21.5898 32.7715C21.7812 32.7715 21.9805 32.7871 22.1875 32.8184C22.3945 32.8457 22.5977 32.9004 22.7969 32.9824C22.9961 33.0684 23.1836 33.1855 23.3594 33.334C23.5391 33.4785 23.6973 33.668 23.834 33.9023C23.9707 34.1406 24.0781 34.4277 24.1562 34.7637C24.2344 35.0957 24.2734 35.4922 24.2734 35.9531C24.2734 36.4141 24.2344 36.8125 24.1562 37.1484C24.0781 37.4805 23.9707 37.7637 23.834 37.998C23.6973 38.2363 23.5391 38.4297 23.3594 38.5781C23.1836 38.7266 22.9961 38.8418 22.7969 38.9238C22.5977 39.0098 22.3945 39.0664 22.1875 39.0938C21.9805 39.125 21.7812 39.1406 21.5898 39.1406C21.4023 39.1406 21.2051 39.125 20.998 39.0938C20.7949 39.0664 20.5938 39.0098 20.3945 38.9238C20.1953 38.8418 20.0078 38.7266 19.832 38.5781C19.6562 38.4297 19.5 38.2363 19.3633 37.998C19.2266 37.7637 19.1191 37.4805 19.041 37.1484C18.9629 36.8125 18.9238 36.4141 18.9238 35.9531C18.9238 35.4922 18.9629 35.0957 19.041 34.7637C19.1191 34.4277 19.2266 34.1406 19.3633 33.9023C19.5 33.668 19.6562 33.4785 19.832 33.334C20.0078 33.1855 20.1953 33.0684 20.3945 32.9824C20.5938 32.9004 20.7949 32.8457 20.998 32.8184C21.2012 32.7871 21.3984 32.7715 21.5898 32.7715ZM21.5898 33.5977C21.3672 33.5977 21.1562 33.6328 20.957 33.7031C20.7617 33.7734 20.5898 33.8965 20.4414 34.0723C20.2891 34.252 20.168 34.4922 20.0781 34.793C19.9883 35.0938 19.9434 35.4805 19.9434 35.9531C19.9434 36.4219 19.9883 36.8086 20.0781 37.1133C20.168 37.4141 20.2891 37.6523 20.4414 37.8281C20.5898 38.0078 20.7617 38.1328 20.957 38.2031C21.1562 38.2695 21.3672 38.3027 21.5898 38.3027C21.8164 38.3027 22.0293 38.2695 22.2285 38.2031C22.4316 38.1328 22.6094 38.0078 22.7617 37.8281C22.9141 37.6523 23.0332 37.4141 23.1191 37.1133C23.209 36.8086 23.2539 36.4219 23.2539 35.9531C23.2539 35.4805 23.209 35.0938 23.1191 34.793C23.0332 34.4922 22.9141 34.252 22.7617 34.0723C22.6094 33.8965 22.4316 33.7734 22.2285 33.7031C22.0293 33.6328 21.8164 33.5977 21.5898 33.5977ZM25.6562 33.0117L26.6289 32.7949C26.7031 33.0293 26.7559 33.2559 26.7871 33.4746C26.8027 33.5801 26.8223 33.7891 26.8457 34.1016H26.9688C27.1836 33.707 27.4492 33.3926 27.7656 33.1582C28.1133 32.9004 28.4805 32.7715 28.8672 32.7715C29.4492 32.7715 29.8926 32.9121 30.1973 33.1934C30.459 33.4316 30.6406 33.7969 30.7422 34.2891C30.8086 34.625 30.8418 35.125 30.8418 35.7891V39H29.834V35.5078C29.834 34.9258 29.7773 34.5098 29.6641 34.2598C29.4961 33.8887 29.1582 33.7031 28.6504 33.7031C28.291 33.7031 27.9395 33.875 27.5957 34.2188C27.3652 34.4492 27.1191 34.7871 26.8574 35.2324V39H25.8496V35.25C25.8496 34.7227 25.8359 34.2676 25.8086 33.8848C25.793 33.6465 25.7422 33.3555 25.6562 33.0117ZM33.1152 31.5117H34.123V32.9062H36.1738V33.7559H34.123V37.2539C34.123 37.4883 34.1289 37.668 34.1406 37.793C34.1562 37.9141 34.1914 38.0098 34.2461 38.0801C34.3477 38.2207 34.5527 38.291 34.8613 38.291C35.0332 38.291 35.1992 38.2734 35.3594 38.2383C35.5234 38.2031 35.6738 38.1641 35.8105 38.1211C35.9199 38.3594 36.0195 38.6211 36.1094 38.9062C35.6484 39.0625 35.1836 39.1406 34.7148 39.1406C34.375 39.1406 34.1016 39.1016 33.8945 39.0234C33.6914 38.9492 33.5312 38.8262 33.4141 38.6543C33.293 38.4746 33.2129 38.2598 33.1738 38.0098C33.1348 37.7598 33.1152 37.4141 33.1152 36.9727V33.7559H32.2363V32.9062H33.1152V31.5117ZM37.9844 33.9844L37.7266 33.1641C38.3828 32.9023 39.0703 32.7715 39.7891 32.7715C40.418 32.7715 40.8984 32.877 41.2305 33.0879C41.6094 33.3301 41.7988 33.7422 41.7988 34.3242V36.7207C41.7988 37.041 41.8027 37.3691 41.8105 37.7051C41.8145 37.9043 41.834 38.1113 41.8691 38.3262C41.9004 38.5293 41.9414 38.7227 41.9922 38.9062L41.0312 39.1172C40.9414 38.8555 40.8848 38.5625 40.8613 38.2383L40.7441 38.2266C40.2598 38.8359 39.6426 39.1406 38.8926 39.1406C38.3457 39.1406 37.9062 38.9902 37.5742 38.6895C37.2422 38.3848 37.0762 37.957 37.0762 37.4062C37.0762 36.9961 37.166 36.6602 37.3457 36.3984C37.5293 36.1367 37.7871 35.916 38.1191 35.7363C38.6426 35.4512 39.375 35.3086 40.3164 35.3086C40.4414 35.3086 40.6094 35.3125 40.8203 35.3203V34.4297C40.8203 34.1484 40.7344 33.9453 40.5625 33.8203C40.3906 33.6953 40.1211 33.6328 39.7539 33.6328C39.2188 33.6328 38.6289 33.75 37.9844 33.9844ZM40.8203 37.2891V36.0586C40.7148 36.0508 40.5605 36.0469 40.3574 36.0469C40.0137 36.0469 39.6973 36.0762 39.4082 36.1348C38.9785 36.2207 38.6445 36.3574 38.4062 36.5449C38.1719 36.7285 38.0547 36.9941 38.0547 37.3418C38.0547 37.9668 38.3945 38.2793 39.0742 38.2793C39.4258 38.2793 39.7539 38.1855 40.0586 37.998C40.3086 37.8418 40.5625 37.6055 40.8203 37.2891ZM44.2715 31.5117H45.2793V32.9062H47.3301V33.7559H45.2793V37.2539C45.2793 37.4883 45.2852 37.668 45.2969 37.793C45.3125 37.9141 45.3477 38.0098 45.4023 38.0801C45.5039 38.2207 45.709 38.291 46.0176 38.291C46.1895 38.291 46.3555 38.2734 46.5156 38.2383C46.6797 38.2031 46.8301 38.1641 46.9668 38.1211C47.0762 38.3594 47.1758 38.6211 47.2656 38.9062C46.8047 39.0625 46.3398 39.1406 45.8711 39.1406C45.5312 39.1406 45.2578 39.1016 45.0508 39.0234C44.8477 38.9492 44.6875 38.8262 44.5703 38.6543C44.4492 38.4746 44.3691 38.2598 44.3301 38.0098C44.291 37.7598 44.2715 37.4141 44.2715 36.9727V33.7559H43.3926V32.9062H44.2715V31.5117ZM51.0508 32.7715C51.2422 32.7715 51.4414 32.7871 51.6484 32.8184C51.8555 32.8457 52.0586 32.9004 52.2578 32.9824C52.457 33.0684 52.6445 33.1855 52.8203 33.334C53 33.4785 53.1582 33.668 53.2949 33.9023C53.4316 34.1406 53.5391 34.4277 53.6172 34.7637C53.6953 35.0957 53.7344 35.4922 53.7344 35.9531C53.7344 36.4141 53.6953 36.8125 53.6172 37.1484C53.5391 37.4805 53.4316 37.7637 53.2949 37.998C53.1582 38.2363 53 38.4297 52.8203 38.5781C52.6445 38.7266 52.457 38.8418 52.2578 38.9238C52.0586 39.0098 51.8555 39.0664 51.6484 39.0938C51.4414 39.125 51.2422 39.1406 51.0508 39.1406C50.8633 39.1406 50.666 39.125 50.459 39.0938C50.2559 39.0664 50.0547 39.0098 49.8555 38.9238C49.6562 38.8418 49.4688 38.7266 49.293 38.5781C49.1172 38.4297 48.9609 38.2363 48.8242 37.998C48.6875 37.7637 48.5801 37.4805 48.502 37.1484C48.4238 36.8125 48.3848 36.4141 48.3848 35.9531C48.3848 35.4922 48.4238 35.0957 48.502 34.7637C48.5801 34.4277 48.6875 34.1406 48.8242 33.9023C48.9609 33.668 49.1172 33.4785 49.293 33.334C49.4688 33.1855 49.6562 33.0684 49.8555 32.9824C50.0547 32.9004 50.2559 32.8457 50.459 32.8184C50.6621 32.7871 50.8594 32.7715 51.0508 32.7715ZM51.0508 33.5977C50.8281 33.5977 50.6172 33.6328 50.418 33.7031C50.2227 33.7734 50.0508 33.8965 49.9023 34.0723C49.75 34.252 49.6289 34.4922 49.5391 34.793C49.4492 35.0938 49.4043 35.4805 49.4043 35.9531C49.4043 36.4219 49.4492 36.8086 49.5391 37.1133C49.6289 37.4141 49.75 37.6523 49.9023 37.8281C50.0508 38.0078 50.2227 38.1328 50.418 38.2031C50.6172 38.2695 50.8281 38.3027 51.0508 38.3027C51.2773 38.3027 51.4902 38.2695 51.6895 38.2031C51.8926 38.1328 52.0703 38.0078 52.2227 37.8281C52.375 37.6523 52.4941 37.4141 52.5801 37.1133C52.6699 36.8086 52.7148 36.4219 52.7148 35.9531C52.7148 35.4805 52.6699 35.0938 52.5801 34.793C52.4941 34.4922 52.375 34.252 52.2227 34.0723C52.0703 33.8965 51.8926 33.7734 51.6895 33.7031C51.4902 33.6328 51.2773 33.5977 51.0508 33.5977ZM57.1211 32.7715C57.4414 32.7715 57.7617 32.8047 58.082 32.8711C58.4062 32.9375 58.707 33.0293 58.9844 33.1465C58.9297 33.2715 58.873 33.3945 58.8145 33.5156C58.7559 33.6367 58.6914 33.7559 58.6211 33.873C58.5234 33.834 58.4141 33.7949 58.293 33.7559C58.1758 33.7168 58.0508 33.6836 57.918 33.6562C57.7891 33.6289 57.6543 33.6074 57.5137 33.5918C57.377 33.5723 57.2422 33.5625 57.1094 33.5625C56.9648 33.5625 56.8242 33.5781 56.6875 33.6094C56.5547 33.6367 56.4355 33.6836 56.3301 33.75C56.2285 33.8164 56.1465 33.9043 56.084 34.0137C56.0215 34.1191 55.9902 34.252 55.9902 34.4121C55.9902 34.5762 56.0254 34.7148 56.0957 34.8281C56.166 34.9375 56.2617 35.0293 56.3828 35.1035C56.5039 35.1777 56.6445 35.2402 56.8047 35.291C56.9688 35.3418 57.1426 35.3887 57.3262 35.4316C57.6113 35.502 57.877 35.582 58.123 35.6719C58.3691 35.7578 58.582 35.8711 58.7617 36.0117C58.9414 36.1523 59.082 36.3262 59.1836 36.5332C59.2852 36.7402 59.3359 36.9961 59.3359 37.3008C59.3359 37.6211 59.2715 37.8965 59.1426 38.127C59.0176 38.3574 58.8457 38.5488 58.627 38.7012C58.4121 38.8496 58.1602 38.959 57.8711 39.0293C57.582 39.1035 57.2734 39.1406 56.9453 39.1406C56.7734 39.1406 56.5957 39.1289 56.4121 39.1055C56.2324 39.0859 56.0527 39.0547 55.873 39.0117C55.6973 38.9727 55.5234 38.9238 55.3516 38.8652C55.1797 38.8066 55.0176 38.7422 54.8652 38.6719C54.9199 38.5469 54.9766 38.4258 55.0352 38.3086C55.0977 38.1875 55.1621 38.0684 55.2285 37.9512C55.3574 38.0059 55.4941 38.0586 55.6387 38.1094C55.7832 38.1562 55.9316 38.1973 56.084 38.2324C56.2363 38.2676 56.3867 38.2969 56.5352 38.3203C56.6836 38.3398 56.8262 38.3496 56.9629 38.3496C57.1348 38.3496 57.3008 38.3301 57.4609 38.291C57.625 38.252 57.7695 38.1914 57.8945 38.1094C58.0234 38.0234 58.125 37.9141 58.1992 37.7812C58.2773 37.6484 58.3164 37.4883 58.3164 37.3008C58.3164 37.125 58.2793 36.9805 58.2051 36.8672C58.1348 36.7539 58.0391 36.6602 57.918 36.5859C57.7969 36.5078 57.6543 36.4453 57.4902 36.3984C57.3301 36.3477 57.1602 36.3008 56.9805 36.2578C56.707 36.1914 56.4473 36.1152 56.2012 36.0293C55.959 35.9434 55.7461 35.832 55.5625 35.6953C55.3828 35.5547 55.2383 35.3828 55.1289 35.1797C55.0234 34.9727 54.9707 34.7168 54.9707 34.4121C54.9707 34.127 55.0293 33.8809 55.1465 33.6738C55.2637 33.4668 55.4199 33.2969 55.6152 33.1641C55.8145 33.0312 56.043 32.9336 56.3008 32.8711C56.5625 32.8047 56.8359 32.7715 57.1211 32.7715Z" fill="black"/>
</svg>
